<?xml version="1.0" standalone="no"?>
<!DOCTYPE svg PUBLIC "-//W3C//DTD SVG 20010904//EN"
 "http://www.w3.org/TR/2001/REC-SVG-20010904/DTD/svg10.dtd">
<svg version="1.0" xmlns="http://www.w3.org/2000/svg"
 width="456.000000pt" height="310.000000pt" viewBox="0 0 456.000000 310.000000"
 preserveAspectRatio="xMidYMid meet">

<g transform="translate(0.000000,310.000000) scale(0.100000,-0.100000)"
fill="#000000" stroke="none">
<path d="M409 2997 c-156 -53 -278 -197 -308 -363 -14 -75 -15 -2054 -1 -2139
12 -78 67 -188 121 -244 63 -65 149 -116 226 -135 62 -15 225 -16 1843 -14
l1775 3 58 23 c86 35 174 106 224 182 84 125 78 33 81 1225 1 712 -1 1077 -8
1111 -33 160 -157 300 -315 354 -57 20 -83 20 -1844 20 l-1786 -1 -66 -22z
m3723 -54 c94 -47 162 -108 204 -182 56 -100 55 -80 52 -1229 l-3 -1057 -22
-55 c-45 -110 -150 -211 -265 -258 -40 -16 -167 -17 -1806 -20 -1921 -3 -1830
-5 -1935 54 -111 62 -197 184 -217 310 -13 80 -13 2039 0 2119 5 33 23 88 40
122 54 109 192 212 312 232 30 5 822 8 1804 7 l1751 -1 85 -42z"/>
<path d="M1620 2384 c-461 -41 -878 -148 -1072 -277 -51 -34 -117 -112 -119
-141 0 -6 -2 -19 -4 -29 -12 -63 69 -165 180 -225 68 -38 264 -117 321 -131
22 -5 93 -23 159 -40 120 -31 411 -81 580 -100 329 -37 997 -47 1515 -23 473
22 795 44 808 54 6 6 12 21 12 33 0 47 -11 48 -277 31 -541 -35 -688 -39
-1203 -39 -563 -1 -684 6 -1015 54 -497 71 -898 209 -976 335 -27 44 -24 58
17 104 38 42 186 120 300 158 299 101 729 160 1089 149 576 -17 1086 -194
1905 -662 52 -30 104 -54 116 -55 24 0 44 18 44 40 0 30 -1 30 -370 233 -237
130 -533 269 -685 323 -38 14 -77 29 -86 33 -31 18 -326 100 -429 120 -206 41
-314 52 -540 55 -124 2 -245 2 -270 0z"/>
<path d="M1010 1065 c0 -77 -4 -125 -10 -125 -5 0 -10 4 -10 9 0 5 -15 19 -34
30 -37 23 -125 29 -173 10 -81 -30 -126 -120 -125 -249 0 -120 39 -195 117
-231 70 -32 155 -19 199 30 26 29 36 26 36 -9 l0 -30 60 0 60 0 0 345 0 345
-60 0 -60 0 0 -125z m-45 -198 c57 -57 60 -184 5 -239 -23 -23 -37 -28 -75
-28 -66 0 -101 36 -110 112 -14 115 29 187 114 188 24 0 41 -8 66 -33z"/>
<path d="M2409 1160 c-170 -29 -265 -185 -239 -393 15 -121 65 -198 158 -244
50 -24 68 -28 147 -28 99 1 146 18 196 72 27 29 59 84 59 102 0 6 -22 22 -50
36 l-49 25 -20 -44 c-42 -96 -187 -114 -260 -31 -40 46 -54 103 -49 201 5 93
24 136 79 172 29 21 43 23 103 20 67 -4 70 -5 107 -47 l39 -43 45 26 c25 15
45 32 45 39 0 7 -11 29 -25 49 -46 68 -174 107 -286 88z"/>
<path d="M1860 1101 c-34 -6 -35 -8 -38 -53 -3 -46 -4 -47 -40 -50 -37 -3 -37
-4 -40 -50 l-3 -48 40 0 41 0 0 -145 c0 -160 9 -197 54 -233 36 -28 109 -38
166 -23 25 7 49 16 54 21 5 5 1 29 -9 55 -14 35 -22 44 -34 39 -40 -17 -69
-16 -90 5 -19 19 -21 32 -21 151 l0 130 70 0 70 0 0 50 0 50 -70 0 -70 0 0 55
c0 61 1 60 -80 46z"/>
<path d="M1355 984 c-22 -8 -53 -24 -69 -37 -31 -25 -31 -43 2 -85 l18 -24 49
31 c38 24 60 31 100 31 56 0 75 -12 75 -47 0 -28 -32 -44 -135 -67 -83 -19
-113 -39 -139 -90 -35 -70 -1 -162 70 -192 66 -28 153 -10 190 38 l18 25 32
-34 c27 -29 38 -33 80 -33 66 0 74 7 67 57 -5 36 -9 42 -32 45 l-26 3 -5 151
c-6 166 -13 188 -73 224 -39 24 -160 26 -222 4z m175 -286 c0 -59 -18 -90 -62
-106 -53 -20 -92 -1 -96 48 -1 19 2 41 7 49 7 10 103 44 144 50 4 1 7 -18 7
-41z"/>
<path d="M2935 981 c-102 -47 -154 -172 -126 -302 16 -72 50 -122 108 -156 42
-24 58 -28 128 -28 64 0 89 5 123 23 84 45 130 148 118 263 -10 98 -59 171
-138 203 -52 22 -162 20 -213 -3z m166 -97 c38 -19 59 -68 59 -134 0 -97 -41
-150 -116 -150 -80 0 -121 63 -111 171 3 32 12 68 21 80 34 48 93 62 147 33z"/>
<path d="M3407 993 c-4 -3 -7 -116 -7 -250 l0 -243 65 0 65 0 0 158 c0 139 2
161 20 190 33 53 112 70 150 32 19 -19 20 -33 20 -200 l0 -180 65 0 65 0 0
178 c0 195 -8 238 -49 284 -25 29 -36 32 -95 36 -77 5 -116 -8 -151 -49 -13
-16 -26 -29 -29 -29 -3 0 -6 18 -6 40 l0 40 -53 0 c-30 0 -57 -3 -60 -7z"/>
</g>
</svg>
